<?xml version="1.0" encoding="utf-8"?>
<!DOCTYPE svg PUBLIC "-//W3C//DTD SVG 1.1//EN" "http://www.w3.org/Graphics/SVG/1.1/DTD/svg11.dtd">
<svg version="1.1" id="Layer_1" xmlns="http://www.w3.org/2000/svg" xmlns:xlink="http://www.w3.org/1999/xlink" x="0px" y="0px"
	 width="860px" height="400px" viewBox="0 0 860 400" enable-background="new 0 0 860 400" xml:space="preserve">
<g>
	<g>
		<rect x="284.17" y="95.18" fill="#FFFFFF" width="311.43" height="195.02"/>
		<path fill="#1D1D1B" d="M595.1,95.68V289.7H284.67V95.68H595.1 M596.1,94.68h-1H284.67h-1v1V289.7v1h1H595.1h1v-1V95.68V94.68
			L596.1,94.68z"/>
	</g>
	<rect x="343.38" y="114.55" fill="#FBBA00" width="251.72" height="16.77"/>
	<rect x="284.67" y="114.55" fill="#1A4175" width="29.88" height="16.77"/>
	<g>
		<rect x="320.15" y="129.79" fill="#1A4175" width="19.1" height="0.81"/>
		<rect x="320.15" y="120.47" fill="#1A4175" width="19.1" height="0.73"/>
		<rect x="316.61" y="132.56" fill="#1A4175" width="26.24" height="1.3"/>
		<rect x="324.57" y="135.76" fill="#1A4175" width="10.32" height="1.22"/>
		<polygon fill="#1A4175" points="329.73,116.42 321.14,119.78 338.27,119.78 		"/>
		<rect x="322.38" y="122.07" fill="#1A4175" width="1.18" height="7.03"/>
		<rect x="325.07" y="122.07" fill="#1A4175" width="1.18" height="7.03"/>
		<rect x="327.77" y="122.07" fill="#1A4175" width="1.18" height="7.03"/>
		<rect x="330.46" y="122.07" fill="#1A4175" width="1.18" height="7.03"/>
		<rect x="333.16" y="122.07" fill="#1A4175" width="1.18" height="7.03"/>
		<rect x="335.85" y="122.07" fill="#1A4175" width="1.18" height="7.03"/>
	</g>
</g>
<rect x="412.65" y="174.82" width="150.71" height="82.33"/>
<text transform="matrix(1 0 0 1 290 320)" font-family="'ArialMT'" font-size="19.1466">www.ugent.be/slides/innoversity/#5</text>
<rect x="84.59" fill="#FFFFFF" stroke="#1D1D1B" stroke-miterlimit="10" width="96.61" height="128.44"/>
<rect x="36.29" y="29.77" fill="#FFFFFF" stroke="#1D1D1B" stroke-miterlimit="10" width="96.61" height="128.44"/>
<rect x="632" y="37.17" fill="#FFFFFF" stroke="#1D1D1B" stroke-miterlimit="10" width="227" height="87.26"/>
<rect x="299.61" y="179.25" fill="#1D70B7" width="97.81" height="14.47"/>
<rect x="299.61" y="208.76" fill="#1D70B7" width="97.81" height="14.47"/>
<g>
	<g>
		<rect x="87.62" y="279.35" fill="#FFFFFF" width="145.51" height="91.32"/>
		<path fill="#1D1D1B" d="M232.62,279.85v90.32H88.12v-90.32H232.62 M233.62,278.85h-1H88.12h-1v1v90.32v1h1h144.51h1v-1v-90.32
			V278.85L233.62,278.85z"/>
	</g>
	<rect x="115.45" y="288.64" fill="#FBBA00" width="117.18" height="7.81"/>
	<rect x="88.12" y="288.64" fill="#1A4175" width="13.91" height="7.81"/>
	<g>
		<rect x="104.63" y="295.73" fill="#1A4175" width="8.89" height="0.38"/>
		<rect x="104.63" y="291.39" fill="#1A4175" width="8.89" height="0.34"/>
		<rect x="102.99" y="297.02" fill="#1A4175" width="12.22" height="0.61"/>
		<rect x="106.69" y="298.51" fill="#1A4175" width="4.8" height="0.57"/>
		<polygon fill="#1A4175" points="109.09,289.5 105.1,291.07 113.07,291.07 		"/>
		<rect x="105.67" y="292.13" fill="#1A4175" width="0.55" height="3.27"/>
		<rect x="106.93" y="292.13" fill="#1A4175" width="0.55" height="3.27"/>
		<rect x="108.18" y="292.13" fill="#1A4175" width="0.55" height="3.27"/>
		<rect x="109.44" y="292.13" fill="#1A4175" width="0.55" height="3.27"/>
		<rect x="110.69" y="292.13" fill="#1A4175" width="0.55" height="3.27"/>
		<rect x="111.94" y="292.13" fill="#1A4175" width="0.55" height="3.27"/>
	</g>
</g>
<g>
	<g>
		<rect x="1.7" y="306.74" fill="#FFFFFF" width="145.51" height="91.32"/>
		<path fill="#1D1D1B" d="M146.71,307.24v90.32H2.2v-90.32H146.71 M147.71,306.24h-1H2.2h-1v1v90.32v1h1h144.51h1v-1v-90.32V306.24
			L147.71,306.24z"/>
	</g>
	<rect x="29.53" y="316.02" fill="#FBBA00" width="117.18" height="7.81"/>
	<rect x="2.2" y="316.02" fill="#1A4175" width="13.91" height="7.81"/>
	<g>
		<rect x="18.72" y="323.12" fill="#1A4175" width="8.89" height="0.38"/>
		<rect x="18.72" y="318.78" fill="#1A4175" width="8.89" height="0.34"/>
		<rect x="17.07" y="324.41" fill="#1A4175" width="12.22" height="0.61"/>
		<rect x="20.77" y="325.9" fill="#1A4175" width="4.8" height="0.57"/>
		<polygon fill="#1A4175" points="23.18,316.89 19.18,318.46 27.15,318.46 		"/>
		<rect x="19.75" y="319.52" fill="#1A4175" width="0.55" height="3.27"/>
		<rect x="21.01" y="319.52" fill="#1A4175" width="0.55" height="3.27"/>
		<rect x="22.26" y="319.52" fill="#1A4175" width="0.55" height="3.27"/>
		<rect x="23.52" y="319.52" fill="#1A4175" width="0.55" height="3.27"/>
		<rect x="24.77" y="319.52" fill="#1A4175" width="0.55" height="3.27"/>
		<rect x="26.03" y="319.52" fill="#1A4175" width="0.55" height="3.27"/>
	</g>
</g>
<g>
	<g>
		<path fill="none" stroke="#1A4175" stroke-width="2" stroke-miterlimit="10" d="M167.63,148.81c7.96,26,44,46.92,89.4,51.17"/>
		<g>
			<polygon fill="#1A4175" points="161.55,155.51 168.35,151.2 176.17,153.1 166,136.98 			"/>
		</g>
		<g>
			<polygon fill="#1A4175" points="250.92,206.86 254.58,199.7 251.96,192.09 268.95,200.7 			"/>
		</g>
	</g>
</g>
<g>
	<g>
		<path fill="none" stroke="#1A4175" stroke-width="2" stroke-miterlimit="10" d="M618.75,316.26
			c81.36,2.22,160.62-79.05,179.48-189.89"/>
		<g>
			<polygon fill="#1A4175" points="623.89,323.87 621.23,316.27 624.85,309.09 606.85,315.33 			"/>
		</g>
		<g>
			<polygon fill="#1A4175" points="804.63,133.04 797.79,128.79 789.99,130.77 800,114.55 			"/>
		</g>
	</g>
</g>
<g>
	<g>
		<path fill="none" stroke="#1A4175" stroke-width="2" stroke-miterlimit="10" d="M137.23,249.96
			c17.34-13.06,66.94-19.8,126.13-16.26"/>
		<g>
			<polygon fill="#1A4175" points="147.05,250.21 139.22,248.34 135.14,241.41 130.66,259.93 			"/>
		</g>
		<g>
			<polygon fill="#1A4175" points="257.25,240.74 260.9,233.56 258.26,225.96 275.27,234.55 			"/>
		</g>
	</g>
</g>
<g id="g10" transform="matrix(1.3333 0 0 -1.3333 0 150.67)">
</g>
<rect x="726" y="55.49" fill="#D9D9D9" width="123" height="6.51"/>
<rect x="726" y="77.54" fill="#D9D9D9" width="123" height="6.51"/>
<rect x="726" y="99.6" fill="#1D70B7" width="123" height="6.51"/>
<g id="g12" transform="scale(.1)">
</g>
<path id="path22" fill="#55ACEE" d="M710.57,61.48c-2.29,1.02-4.75,1.7-7.34,2.01c2.64-1.58,4.66-4.09,5.62-7.07
	c-2.47,1.46-5.2,2.53-8.12,3.1c-2.33-2.48-5.65-4.04-9.33-4.04c-7.06,0-12.78,5.72-12.78,12.78c0,1,0.11,1.98,0.33,2.91
	c-10.62-0.53-20.04-5.62-26.34-13.35c-1.1,1.89-1.73,4.08-1.73,6.42c0,4.43,2.25,8.35,5.69,10.64c-2.1-0.07-4.07-0.64-5.79-1.6
	c0,0.05,0,0.11,0,0.16c0,6.19,4.41,11.36,10.25,12.53c-1.07,0.29-2.2,0.45-3.37,0.45c-0.82,0-1.62-0.08-2.41-0.23
	c1.63,5.08,6.35,8.77,11.94,8.88c-4.38,3.43-9.89,5.47-15.87,5.47c-1.03,0-2.05-0.06-3.05-0.18c5.66,3.63,12.38,5.74,19.59,5.74
	c23.51,0,36.36-19.47,36.36-36.36c0-0.55-0.01-1.1-0.04-1.65C706.69,66.29,708.85,64.04,710.57,61.48"/>
<path fill="#BD1622" d="M511.58,220.57c0,6.25-4.58,11.31-10.22,11.31h-26.71c-5.64,0-10.22-5.06-10.22-11.31v-10.28
	c0-6.25,4.58-11.31,10.22-11.31h26.71c5.64,0,10.22,5.06,10.22,11.31V220.57z"/>
<polygon fill="#FFFFFF" points="483.35,208.76 493.64,214.71 483.35,220.65 "/>
<text transform="matrix(1 0 0 1 350 65)" font-family="Arial" font-size="40" letter-spacing="1">webslides</text>
</svg>
