<?xml version="1.0" encoding="utf-8"?>
<!DOCTYPE svg PUBLIC "-//W3C//DTD SVG 1.1//EN" "http://www.w3.org/Graphics/SVG/1.1/DTD/svg11.dtd">
<svg version="1.1" id="Layer_1" xmlns="http://www.w3.org/2000/svg" xmlns:xlink="http://www.w3.org/1999/xlink" x="0px" y="0px"
	 width="280.108px" height="94.793px" viewBox="0 0 280.108 94.793" enable-background="new 0 0 280.108 94.793"
	 xml:space="preserve">
<path fill="#1a4175" d="M20.387,4.346c0,2.263-1.671,4.096-4.419,4.096c-2.587,0-4.258-1.833-4.258-4.096
	c0-2.317,1.725-4.096,4.366-4.096C18.716,0.25,20.333,2.029,20.387,4.346z M11.926,38.03V11.676h8.192V38.03H11.926z"/>
<path fill="#1a4175" d="M58.276,19.833c0-3.288-0.108-6.036-0.216-8.407h7.114l0.377,3.665h0.162
	c1.078-1.725,3.718-4.258,8.138-4.258c5.39,0,9.432,3.611,9.432,11.372V37.78h-8.192V23.174c0-3.395-1.186-5.712-4.15-5.712
	c-2.264,0-3.611,1.563-4.204,3.072c-0.216,0.539-0.27,1.293-0.27,2.048V37.78h-8.192V19.833z"/>
<path fill="#1a4175" d="M115.89,24.306c0,9.647-6.845,14.066-13.905,14.066c-7.707,0-13.635-5.066-13.635-13.581
	c0-8.569,5.605-14.013,14.121-14.013C110.5,10.779,115.89,16.33,115.89,24.306z M96.811,24.576c0,4.527,1.886,7.922,5.39,7.922
	c3.233,0,5.228-3.18,5.228-7.976c0-3.88-1.509-7.869-5.228-7.869C98.32,16.653,96.811,20.695,96.811,24.576z"/>
<path fill="#1a4175" d="M126.562,11.426l3.557,12.234c0.646,2.264,1.078,4.312,1.509,6.413h0.162
	c0.431-2.156,0.862-4.149,1.455-6.413l3.395-12.234h8.624l-9.809,26.354h-8.192l-9.593-26.354H126.562z"/>
<path fill="#1a4175" d="M154.534,27.216c0.216,3.396,3.611,5.012,7.438,5.012c2.803,0,5.066-0.377,7.276-1.131l1.077,5.551
	c-2.694,1.132-5.982,1.671-9.539,1.671c-8.946,0-14.066-5.174-14.066-13.42c0-6.683,4.15-14.066,13.312-14.066
	c8.515,0,11.748,6.629,11.748,13.15c0,1.401-0.161,2.641-0.27,3.233H154.534z M164.182,21.612c0-1.994-0.862-5.336-4.635-5.336
	c-3.449,0-4.851,3.18-5.066,5.336H164.182z"/>
<path fill="#1a4175" d="M176.686,20.103c0-3.88-0.054-6.414-0.215-8.677h7.006l0.323,4.85h0.216c1.348-3.88,4.527-5.497,7.114-5.497
	c0.754,0,1.132,0.054,1.725,0.162v7.707c-0.647-0.108-1.294-0.216-2.21-0.216c-3.019,0-5.066,1.617-5.604,4.15
	c-0.108,0.539-0.162,1.186-0.162,1.833V37.78h-8.192V20.103z"/>
<path fill="#1a4175" d="M197.111,30.666c1.509,0.917,4.635,1.94,7.061,1.94c2.479,0,3.503-0.809,3.503-2.156
	c0-1.401-0.809-2.048-3.826-3.072c-5.497-1.833-7.6-4.797-7.546-7.923c0-4.958,4.204-8.677,10.726-8.677
	c3.071,0,5.767,0.754,7.383,1.563l-1.4,5.659c-1.187-0.646-3.504-1.509-5.713-1.509c-1.994,0-3.126,0.809-3.126,2.102
	c0,1.294,1.023,1.94,4.258,3.072c5.012,1.725,7.06,4.312,7.113,8.138c0,4.958-3.826,8.569-11.371,8.569
	c-3.449,0-6.521-0.809-8.516-1.886L197.111,30.666z"/>
<path fill="#1a4175" d="M229.018,4.096c0,2.263-1.671,4.096-4.419,4.096c-2.588,0-4.258-1.833-4.258-4.096
	c0-2.317,1.725-4.096,4.365-4.096S228.964,1.779,229.018,4.096z M220.556,37.78V11.426h8.192V37.78H220.556z"/>
<path fill="#1a4175" d="M244.484,4.312v7.114h5.875v6.036h-5.875v9.539c0,3.18,0.809,4.635,3.234,4.635
	c1.132,0,1.67-0.054,2.425-0.215l0.054,6.198c-1.023,0.377-3.018,0.701-5.281,0.701c-2.641,0-4.851-0.917-6.198-2.264
	c-1.509-1.563-2.264-4.096-2.264-7.814V17.462h-3.503v-6.036h3.503V6.521L244.484,4.312z"/>
<path fill="#1a4175" d="M261.516,11.426l3.935,12.988c0.431,1.509,0.97,3.503,1.293,4.904h0.216
	c0.323-1.455,0.754-3.395,1.132-4.958l3.287-12.935h8.73l-6.144,17.354c-3.772,10.509-6.306,14.659-9.27,17.3
	c-2.803,2.479-5.82,3.396-7.868,3.61l-1.779-6.898c1.024-0.216,2.317-0.701,3.558-1.401c1.239-0.646,2.641-1.994,3.396-3.288
	c0.269-0.431,0.431-0.862,0.431-1.186s-0.054-0.701-0.323-1.347l-9.701-24.145H261.516z"/>
<path fill="#1a4175" d="M21.289,82.829c-1.456,0.701-4.204,1.24-7.33,1.24C5.443,84.069,0,78.84,0,70.595
	c0-7.707,5.282-14.013,15.09-14.013c2.156,0,4.527,0.377,6.252,1.024l-1.293,6.09c-0.97-0.432-2.425-0.809-4.581-0.809
	c-4.312,0-7.114,3.072-7.06,7.384c0,4.796,3.233,7.383,7.222,7.383c1.94,0,3.449-0.323,4.689-0.862L21.289,82.829z"/>
<path fill="#1a4175" d="M51.699,37.78V22.205c0-7.761-4.042-11.372-9.432-11.372c-4.419,0-7.06,2.533-8.138,4.258h-0.162
	l-0.377-3.665h-7.114c0.108,2.371,0.216,5.12,0.216,8.407V37.78v45.75h8.192V67.9c0-0.593,0.054-1.293,0.27-1.778
	c0.593-1.509,1.94-2.91,4.096-2.91c3.072,0,4.258,2.371,4.258,5.82V83.53h8.192v-15.36c0-7.976-3.988-11.587-9.216-11.587
	c-1.509,0-3.018,0.377-4.258,1.024c-1.293,0.646-2.371,1.562-3.233,2.748h-0.108V37.78V22.582c0-0.754,0.054-1.509,0.27-2.048
	c0.593-1.509,1.94-3.072,4.204-3.072c2.964,0,4.15,2.317,4.15,5.712V37.78H51.699z"/>
<path fill="#1a4175" d="M82.274,77.17c0,2.479,0.108,4.904,0.432,6.359h-7.384l-0.485-2.641h-0.162
	c-1.725,2.102-4.419,3.233-7.545,3.233c-5.335,0-8.515-3.881-8.515-8.084c0-6.845,6.144-10.078,15.468-10.078v-0.323
	c0-1.456-0.755-3.449-4.797-3.449c-2.695,0-5.551,0.916-7.275,1.993L60.501,58.9c1.833-1.023,5.443-2.371,10.24-2.371
	c8.785,0,11.533,5.174,11.533,11.426V77.17z M74.352,71.08c-4.312,0-7.653,1.024-7.653,4.15c0,2.102,1.401,3.126,3.234,3.126
	c1.994,0,3.718-1.348,4.257-3.019c0.108-0.431,0.162-0.916,0.162-1.401V71.08z"/>
<path fill="#1a4175" d="M126.816,72.966c0.215,3.396,3.611,5.012,7.437,5.012c2.803,0,5.066-0.377,7.276-1.131l1.077,5.551
	c-2.694,1.132-5.981,1.671-9.539,1.671c-8.946,0-14.066-5.174-14.066-13.42c0-6.683,4.15-14.066,13.312-14.066
	c8.516,0,11.749,6.629,11.749,13.15c0,1.401-0.16,2.641-0.27,3.233H126.816z M136.463,67.362c0-1.994-0.862-5.336-4.635-5.336
	c-3.449,0-4.851,3.18-5.066,5.336H136.463z"/>
<path fill="#1a4175" d="M149.937,65.583c0-3.287-0.107-6.036-0.215-8.407h7.113l0.379,3.665h0.16
	c1.078-1.725,3.719-4.258,8.139-4.258c5.389,0,9.432,3.611,9.432,11.372V83.53h-8.191V68.924c0-3.396-1.186-5.713-4.15-5.713
	c-2.264,0-3.611,1.563-4.203,3.072c-0.217,0.539-0.27,1.293-0.27,2.048V83.53h-8.193V65.583z"/>
<path fill="#1a4175" d="M207.444,79.703c0,5.066-1.023,9.217-4.043,11.857c-2.855,2.479-6.789,3.233-10.67,3.233
	c-3.504,0-7.115-0.7-9.486-1.994l1.617-6.252c1.672,0.971,4.527,1.994,7.652,1.994c3.881,0,6.846-2.048,6.846-6.952v-1.671h-0.107
	c-1.564,2.156-4.096,3.396-7.115,3.396c-6.521,0-11.156-5.281-11.156-12.827c0-8.515,5.443-13.904,11.965-13.904
	c3.611,0,5.875,1.562,7.223,3.772h0.107l0.27-3.18h7.113c-0.107,1.725-0.215,3.935-0.215,7.868V79.703z M199.253,67.9
	c0-0.484-0.055-1.023-0.162-1.509c-0.594-2.155-2.156-3.61-4.42-3.61c-3.018,0-5.389,2.694-5.389,7.491
	c0,3.934,1.939,7.006,5.336,7.006c2.154,0,3.826-1.401,4.365-3.287c0.215-0.647,0.27-1.51,0.27-2.21V67.9z"/>
<path fill="#1a4175" d="M221.296,72.966c0.215,3.396,3.611,5.012,7.438,5.012c2.803,0,5.066-0.377,7.275-1.131l1.078,5.551
	c-2.695,1.132-5.982,1.671-9.539,1.671c-8.947,0-14.066-5.174-14.066-13.42c0-6.683,4.15-14.066,13.312-14.066
	c8.514,0,11.748,6.629,11.748,13.15c0,1.401-0.162,2.641-0.27,3.233H221.296z M230.942,67.362c0-1.994-0.861-5.336-4.635-5.336
	c-3.449,0-4.85,3.18-5.066,5.336H230.942z"/>
<path fill="#1a4175" d="M90.928,45.292V83.53h8.192V50.594C95.672,49.9,92.782,48.077,90.928,45.292z"/>
<path fill="#1a4175" d="M105.719,50.554V83.53h8.192V45.265h-0.034C111.933,48.126,108.977,49.859,105.719,50.554z"/>
</svg>
