<?xml version="1.0" encoding="utf-8"?>
<!DOCTYPE svg PUBLIC "-//W3C//DTD SVG 1.1//EN" "http://www.w3.org/Graphics/SVG/1.1/DTD/svg11.dtd">
<svg version="1.1" id="Layer_1" xmlns="http://www.w3.org/2000/svg" xmlns:xlink="http://www.w3.org/1999/xlink" x="0px" y="0px"
	 width="860px" height="400px" viewBox="0 0 860 400" enable-background="new 0 0 860 400" xml:space="preserve">
<g>
	<g>
		<rect x="601.5" y="11.74" fill="#FFFFFF" width="600.76" height="375.85"/>
		<path fill="#1D1D1B" d="M1201.76,12.24v374.85H602V12.24H1201.76 M1202.76,11.24h-1H602h-1v1v374.85v1h1h599.76h1v-1V12.24V11.24
			L1202.76,11.24z"/>
	</g>
	<rect x="715.43" y="48.7" fill="#FBBA00" width="486.33" height="32.41"/>
	<rect x="602" y="48.7" fill="#1A4175" width="57.73" height="32.41"/>
	<g>
		<rect x="670.55" y="78.14" fill="#1A4175" width="36.91" height="1.56"/>
		<rect x="670.55" y="60.13" fill="#1A4175" width="36.91" height="1.4"/>
		<rect x="663.72" y="83.5" fill="#1A4175" width="50.7" height="2.51"/>
		<rect x="679.1" y="89.68" fill="#1A4175" width="19.93" height="2.36"/>
		<polygon fill="#1A4175" points="689.06,52.31 672.47,58.81 705.56,58.81 		"/>
		<rect x="674.86" y="63.22" fill="#1A4175" width="2.28" height="13.59"/>
		<rect x="680.07" y="63.22" fill="#1A4175" width="2.28" height="13.59"/>
		<rect x="685.28" y="63.22" fill="#1A4175" width="2.28" height="13.59"/>
		<rect x="690.48" y="63.22" fill="#1A4175" width="2.28" height="13.59"/>
		<rect x="695.69" y="63.22" fill="#1A4175" width="2.28" height="13.59"/>
		<rect x="700.9" y="63.22" fill="#1A4175" width="2.28" height="13.59"/>
	</g>
</g>
<rect x="630.87" y="173.71" fill="#1D70B7" width="165.13" height="27.96"/>
<rect x="630.87" y="117.71" fill="#1D70B7" width="165.13" height="27.96"/>
<rect x="630.87" y="230.72" fill="#1D70B7" width="165.13" height="27.96"/>
<g>
	<rect x="0.5" y="0.5" fill="#FFFFFF" width="444" height="118.67"/>
	<path fill="#1D1D1B" d="M444,1v117.67H1V1H444 M445,0h-1H1H0v1v117.67v1h1h443h1v-1V1V0L445,0z"/>
</g>
<circle fill="#93C01F" cx="56" cy="42.46" r="35.67"/>
<polygon fill="#93C01F" points="109,118.67 1,118.67 15,84.01 96,84.01 "/>
<g>
	<rect x="173.71" y="12.74" fill="#FFFFFF" width="270.79" height="106.43"/>
	<path fill="#1D1D1B" d="M444,13.24v105.43H174.21V13.24H444 M445,12.24h-1H174.21h-1v1v105.43v1h1H444h1v-1V13.24V12.24L445,12.24z
		"/>
</g>
<rect x="229.45" y="31" fill="#FBBA00" width="214.55" height="15.78"/>
<rect x="174.21" y="31" fill="#1A4175" width="28.12" height="15.78"/>
<g>
	<rect x="207.59" y="45.34" fill="#1A4175" width="17.97" height="0.76"/>
	<rect x="207.59" y="36.56" fill="#1A4175" width="17.97" height="0.68"/>
	<rect x="204.26" y="47.95" fill="#1A4175" width="24.69" height="1.22"/>
	<rect x="211.76" y="50.96" fill="#1A4175" width="9.71" height="1.15"/>
	<polygon fill="#1A4175" points="216.61,32.76 208.53,35.92 224.64,35.92 	"/>
	<rect x="209.69" y="38.07" fill="#1A4175" width="1.11" height="6.62"/>
	<rect x="212.23" y="38.07" fill="#1A4175" width="1.11" height="6.62"/>
	<rect x="214.76" y="38.07" fill="#1A4175" width="1.11" height="6.62"/>
	<rect x="217.3" y="38.07" fill="#1A4175" width="1.11" height="6.62"/>
	<rect x="219.83" y="38.07" fill="#1A4175" width="1.11" height="6.62"/>
	<rect x="222.37" y="38.07" fill="#1A4175" width="1.11" height="6.62"/>
</g>
<rect x="188.26" y="68.99" fill="#E5332A" width="92.04" height="13.62"/>
<rect x="188.26" y="94.1" fill="#DDDB00" width="92.04" height="13.62"/>
<g>
	<rect x="0.5" y="280.83" fill="#FFFFFF" width="444" height="118.67"/>
	<path fill="#1D1D1B" d="M444,281.33V399H1V281.33H444 M445,280.33h-1H1H0v1V399v1h1h443h1v-1V281.33V280.33L445,280.33z"/>
</g>
<circle fill="#F29100" cx="56" cy="322.79" r="35.67"/>
<polygon fill="#F29100" points="109,399 1,399 15,364.33 96,364.33 "/>
<g>
	<rect x="173.71" y="293.07" fill="#FFFFFF" width="270.79" height="106.43"/>
	<path fill="#1D1D1B" d="M444,293.57V399H174.21V293.57H444 M445,292.57h-1H174.21h-1v1V399v1h1H444h1v-1V293.57V292.57L445,292.57z
		"/>
</g>
<rect x="229.45" y="311.33" fill="#FBBA00" width="214.55" height="15.79"/>
<rect x="174.21" y="311.33" fill="#1A4175" width="28.12" height="15.79"/>
<g>
	<rect x="207.59" y="325.66" fill="#1A4175" width="17.97" height="0.76"/>
	<rect x="207.59" y="316.89" fill="#1A4175" width="17.97" height="0.68"/>
	<rect x="204.26" y="328.27" fill="#1A4175" width="24.69" height="1.22"/>
	<rect x="211.76" y="331.28" fill="#1A4175" width="9.71" height="1.15"/>
	<polygon fill="#1A4175" points="216.61,313.08 208.53,316.25 224.64,316.25 	"/>
	<rect x="209.69" y="318.4" fill="#1A4175" width="1.11" height="6.62"/>
	<rect x="212.23" y="318.4" fill="#1A4175" width="1.11" height="6.62"/>
	<rect x="214.76" y="318.4" fill="#1A4175" width="1.11" height="6.62"/>
	<rect x="217.3" y="318.4" fill="#1A4175" width="1.11" height="6.62"/>
	<rect x="219.83" y="318.4" fill="#1A4175" width="1.11" height="6.62"/>
	<rect x="222.37" y="318.4" fill="#1A4175" width="1.11" height="6.62"/>
</g>
<rect x="188.26" y="349.31" fill="#1D70B7" width="92.04" height="13.62"/>
<rect x="188.26" y="374.42" fill="#1D70B7" width="92.04" height="13.62"/>
<g>
	<rect x="325.72" y="343.48" width="84.07" height="45.92"/>
	<path fill="#BD1622" d="M380.91,369c0,3.48-2.55,6.31-5.7,6.31h-14.9c-3.15,0-5.7-2.82-5.7-6.31v-5.74c0-3.48,2.55-6.31,5.7-6.31
		h14.9c3.15,0,5.7,2.82,5.7,6.31V369z"/>
	<polygon fill="#FFFFFF" points="365.16,362.41 370.9,365.72 365.16,369.04 	"/>
</g>
<g>
	<g>
		<path fill="none" stroke="#1A4175" stroke-width="2" stroke-miterlimit="10" d="M453.45,346.12c34.31,21.4,90.91-2.7,128.19-55.03
			"/>
		<g>
			<polygon fill="#1A4175" points="584.55,299.85 580.18,293.1 572.29,291.55 588.26,281.16 			"/>
		</g>
	</g>
</g>
<g>
	<g>
		<path fill="none" stroke="#1A4175" stroke-width="2" stroke-miterlimit="10" d="M456.94,63.46c34.31-21.4,90.91,2.7,128.19,55.03"
			/>
		<g>
			<polygon fill="#1A4175" points="575.78,118.02 583.68,116.48 588.05,109.72 591.75,128.42 			"/>
		</g>
	</g>
</g>
<path fill="#009540" d="M493.13,67.12l2.16,3.08c-8.8,6.62-18.58,16.81-29.35,30.58c-10.77,13.77-18.99,26.63-24.66,38.59
	l-4.56,3.08c-3.78,2.63-6.35,4.58-7.71,5.86c-0.53-1.93-1.7-5.1-3.51-9.49l-1.73-4.01c-2.46-5.75-4.76-10.01-6.88-12.76
	c-2.12-2.75-4.49-4.58-7.12-5.49c4.44-4.69,8.51-7.03,12.21-7.03c3.17,0,6.68,4.29,10.54,12.88l1.91,4.32
	c6.94-11.71,15.86-23.1,26.75-34.15C472.09,81.52,482.74,73.04,493.13,67.12z"/>
<path fill="#009540" d="M493.13,240.57l2.16,3.08c-8.8,6.62-18.58,16.81-29.35,30.58c-10.77,13.77-18.99,26.63-24.66,38.59
	l-4.56,3.08c-3.78,2.63-6.35,4.58-7.71,5.86c-0.53-1.93-1.7-5.1-3.51-9.49l-1.73-4.01c-2.46-5.75-4.76-10.01-6.88-12.76
	c-2.12-2.75-4.49-4.58-7.12-5.49c4.44-4.69,8.51-7.03,12.21-7.03c3.17,0,6.68,4.29,10.54,12.88l1.91,4.32
	c6.94-11.71,15.86-23.1,26.75-34.15C472.09,254.97,482.74,246.49,493.13,240.57z"/>
<text transform="matrix(1 0 0 1 5 212)" font-family="Arial" font-size="40" letter-spacing="1">samenwerkingsplatform</text>
</svg>
