<?xml version="1.0" encoding="UTF-8" standalone="no"?>
<svg
   xmlns:dc="http://purl.org/dc/elements/1.1/"
   xmlns:cc="http://creativecommons.org/ns#"
   xmlns:rdf="http://www.w3.org/1999/02/22-rdf-syntax-ns#"
   xmlns:svg="http://www.w3.org/2000/svg"
   xmlns="http://www.w3.org/2000/svg"
   xmlns:sodipodi="http://sodipodi.sourceforge.net/DTD/sodipodi-0.dtd"
   xmlns:inkscape="http://www.inkscape.org/namespaces/inkscape"
   version="1.1"
   id="Layer_1"
   x="0px"
   y="0px"
   width="860px"
   height="400px"
   viewBox="0 0 860 400"
   enable-background="new 0 0 860 400"
   xml:space="preserve"
   inkscape:version="0.48.4 r9939"
   sodipodi:docname="open-source.svg"><metadata
     id="metadata179"><rdf:RDF><cc:Work
         rdf:about=""><dc:format>image/svg+xml</dc:format><dc:type
           rdf:resource="http://purl.org/dc/dcmitype/StillImage" /></cc:Work></rdf:RDF></metadata><defs
     id="defs177" /><sodipodi:namedview
     pagecolor="#ffffff"
     bordercolor="#666666"
     borderopacity="1"
     objecttolerance="10"
     gridtolerance="10"
     guidetolerance="10"
     inkscape:pageopacity="0"
     inkscape:pageshadow="2"
     inkscape:window-width="640"
     inkscape:window-height="480"
     id="namedview175"
     showgrid="false"
     inkscape:zoom="0.33953488"
     inkscape:cx="430"
     inkscape:cy="200"
     inkscape:window-x="65"
     inkscape:window-y="34"
     inkscape:window-maximized="0"
     inkscape:current-layer="Layer_1" /><g
     id="g3"><g
       id="g5"><rect
         x="601.5"
         y="11.74"
         fill="#FFFFFF"
         width="600.76"
         height="375.85"
         id="rect7" /><path
         fill="#1D1D1B"
         d="M1201.76,12.24v374.85H602V12.24H1201.76 M1202.76,11.24h-1H602h-1v1v374.85v1h1h599.76h1v-1V12.24V11.24    L1202.76,11.24z"
         id="path9" /></g><rect
       x="715.43"
       y="48.7"
       fill="#FBBA00"
       width="486.33"
       height="32.41"
       id="rect11" /><rect
       x="602"
       y="48.7"
       fill="#1A4175"
       width="57.73"
       height="32.41"
       id="rect13" /><g
       id="g15"><rect
         x="670.55"
         y="78.14"
         fill="#1A4175"
         width="36.91"
         height="1.56"
         id="rect17" /><rect
         x="670.55"
         y="60.13"
         fill="#1A4175"
         width="36.91"
         height="1.4"
         id="rect19" /><rect
         x="663.72"
         y="83.5"
         fill="#1A4175"
         width="50.7"
         height="2.51"
         id="rect21" /><rect
         x="679.1"
         y="89.68"
         fill="#1A4175"
         width="19.93"
         height="2.36"
         id="rect23" /><polygon
         fill="#1A4175"
         points="689.06,52.31 672.47,58.81 705.56,58.81   "
         id="polygon25" /><rect
         x="674.86"
         y="63.22"
         fill="#1A4175"
         width="2.28"
         height="13.59"
         id="rect27" /><rect
         x="680.07"
         y="63.22"
         fill="#1A4175"
         width="2.28"
         height="13.59"
         id="rect29" /><rect
         x="685.28"
         y="63.22"
         fill="#1A4175"
         width="2.28"
         height="13.59"
         id="rect31" /><rect
         x="690.48"
         y="63.22"
         fill="#1A4175"
         width="2.28"
         height="13.59"
         id="rect33" /><rect
         x="695.69"
         y="63.22"
         fill="#1A4175"
         width="2.28"
         height="13.59"
         id="rect35" /><rect
         x="700.9"
         y="63.22"
         fill="#1A4175"
         width="2.28"
         height="13.59"
         id="rect37" /></g></g><rect
     x="630.87"
     y="173.71"
     fill="#1D70B7"
     width="165.13"
     height="27.96"
     id="rect39" /><rect
     x="630.87"
     y="117.71"
     fill="#1D70B7"
     width="165.13"
     height="27.96"
     id="rect41" /><rect
     x="630.87"
     y="230.72"
     fill="#1D70B7"
     width="165.13"
     height="27.96"
     id="rect43" /><g
     id="g45"><rect
       x="0.5"
       y="0.5"
       fill="#FFFFFF"
       width="444"
       height="118.67"
       id="rect47" /><path
       fill="#1D1D1B"
       d="M444,1v117.67H1V1H444 M445,0h-1H1H0v1v117.67v1h1h443h1v-1V1V0L445,0z"
       id="path49" /></g><circle
     fill="#93C01F"
     cx="56"
     cy="42.46"
     r="35.67"
     id="circle51" /><polygon
     fill="#93C01F"
     points="109,118.67 1,118.67 15,84.01 96,84.01 "
     id="polygon53" /><g
     id="g55"><rect
       x="173.71"
       y="12.74"
       fill="#FFFFFF"
       width="270.79"
       height="106.43"
       id="rect57" /><path
       fill="#1D1D1B"
       d="M444,13.24v105.43H174.21V13.24H444 M445,12.24h-1H174.21h-1v1v105.43v1h1H444h1v-1V13.24V12.24L445,12.24z   "
       id="path59" /></g><rect
     x="229.45"
     y="31"
     fill="#FBBA00"
     width="214.55"
     height="15.78"
     id="rect61" /><rect
     x="174.21"
     y="31"
     fill="#1A4175"
     width="28.12"
     height="15.78"
     id="rect63" /><g
     id="g65"><rect
       x="207.59"
       y="45.34"
       fill="#1A4175"
       width="17.97"
       height="0.76"
       id="rect67" /><rect
       x="207.59"
       y="36.56"
       fill="#1A4175"
       width="17.97"
       height="0.68"
       id="rect69" /><rect
       x="204.26"
       y="47.95"
       fill="#1A4175"
       width="24.69"
       height="1.22"
       id="rect71" /><rect
       x="211.76"
       y="50.96"
       fill="#1A4175"
       width="9.71"
       height="1.15"
       id="rect73" /><polygon
       fill="#1A4175"
       points="216.61,32.76 208.53,35.92 224.64,35.92  "
       id="polygon75" /><rect
       x="209.69"
       y="38.07"
       fill="#1A4175"
       width="1.11"
       height="6.62"
       id="rect77" /><rect
       x="212.23"
       y="38.07"
       fill="#1A4175"
       width="1.11"
       height="6.62"
       id="rect79" /><rect
       x="214.76"
       y="38.07"
       fill="#1A4175"
       width="1.11"
       height="6.62"
       id="rect81" /><rect
       x="217.3"
       y="38.07"
       fill="#1A4175"
       width="1.11"
       height="6.62"
       id="rect83" /><rect
       x="219.83"
       y="38.07"
       fill="#1A4175"
       width="1.11"
       height="6.62"
       id="rect85" /><rect
       x="222.37"
       y="38.07"
       fill="#1A4175"
       width="1.11"
       height="6.62"
       id="rect87" /></g><rect
     x="188.26"
     y="68.99"
     fill="#E5332A"
     width="92.04"
     height="13.62"
     id="rect89" /><rect
     x="188.26"
     y="94.1"
     fill="#DDDB00"
     width="92.04"
     height="13.62"
     id="rect91" /><g
     id="g93"><rect
       x="0.5"
       y="280.83"
       fill="#FFFFFF"
       width="444"
       height="118.67"
       id="rect95" /><path
       fill="#1D1D1B"
       d="M444,281.33V399H1V281.33H444 M445,280.33h-1H1H0v1V399v1h1h443h1v-1V281.33V280.33L445,280.33z"
       id="path97" /></g><circle
     fill="#F29100"
     cx="56"
     cy="322.79"
     r="35.67"
     id="circle99" /><polygon
     fill="#F29100"
     points="109,399 1,399 15,364.33 96,364.33 "
     id="polygon101" /><g
     id="g103"><rect
       x="173.71"
       y="293.07"
       fill="#FFFFFF"
       width="270.79"
       height="106.43"
       id="rect105" /><path
       fill="#1D1D1B"
       d="M444,293.57V399H174.21V293.57H444 M445,292.57h-1H174.21h-1v1V399v1h1H444h1v-1V293.57V292.57L445,292.57z   "
       id="path107" /></g><rect
     x="229.45"
     y="311.33"
     fill="#FBBA00"
     width="214.55"
     height="15.79"
     id="rect109" /><rect
     x="174.21"
     y="311.33"
     fill="#1A4175"
     width="28.12"
     height="15.79"
     id="rect111" /><g
     id="g113"><rect
       x="207.59"
       y="325.66"
       fill="#1A4175"
       width="17.97"
       height="0.76"
       id="rect115" /><rect
       x="207.59"
       y="316.89"
       fill="#1A4175"
       width="17.97"
       height="0.68"
       id="rect117" /><rect
       x="204.26"
       y="328.27"
       fill="#1A4175"
       width="24.69"
       height="1.22"
       id="rect119" /><rect
       x="211.76"
       y="331.28"
       fill="#1A4175"
       width="9.71"
       height="1.15"
       id="rect121" /><polygon
       fill="#1A4175"
       points="216.61,313.08 208.53,316.25 224.64,316.25  "
       id="polygon123" /><rect
       x="209.69"
       y="318.4"
       fill="#1A4175"
       width="1.11"
       height="6.62"
       id="rect125" /><rect
       x="212.23"
       y="318.4"
       fill="#1A4175"
       width="1.11"
       height="6.62"
       id="rect127" /><rect
       x="214.76"
       y="318.4"
       fill="#1A4175"
       width="1.11"
       height="6.62"
       id="rect129" /><rect
       x="217.3"
       y="318.4"
       fill="#1A4175"
       width="1.11"
       height="6.62"
       id="rect131" /><rect
       x="219.83"
       y="318.4"
       fill="#1A4175"
       width="1.11"
       height="6.62"
       id="rect133" /><rect
       x="222.37"
       y="318.4"
       fill="#1A4175"
       width="1.11"
       height="6.62"
       id="rect135" /></g><rect
     x="188.26"
     y="349.31"
     fill="#1D70B7"
     width="92.04"
     height="13.62"
     id="rect137" /><rect
     x="188.26"
     y="374.42"
     fill="#1D70B7"
     width="92.04"
     height="13.62"
     id="rect139" /><g
     id="g141"><rect
       x="325.72"
       y="343.48"
       width="84.07"
       height="45.92"
       id="rect143" /><path
       fill="#BD1622"
       d="M380.91,369c0,3.48-2.55,6.31-5.7,6.31h-14.9c-3.15,0-5.7-2.82-5.7-6.31v-5.74c0-3.48,2.55-6.31,5.7-6.31   h14.9c3.15,0,5.7,2.82,5.7,6.31V369z"
       id="path145" /><polygon
       fill="#FFFFFF"
       points="365.16,362.41 370.9,365.72 365.16,369.04  "
       id="polygon147" /></g><g
     id="g149"><g
       id="g151"><path
         fill="none"
         stroke="#1A4175"
         stroke-width="2"
         stroke-miterlimit="10"
         d="M453.45,346.12c34.31,21.4,90.91-2.7,128.19-55.03    "
         id="path153" /><g
         id="g155"><polygon
           fill="#1A4175"
           points="584.55,299.85 580.18,293.1 572.29,291.55 588.26,281.16    "
           id="polygon157" /></g></g></g><g
     id="g159"><g
       id="g161"><path
         fill="none"
         stroke="#1A4175"
         stroke-width="2"
         stroke-miterlimit="10"
         d="M456.94,63.46c34.31-21.4,90.91,2.7,128.19,55.03"
         id="path163" /><g
         id="g165"><polygon
           fill="#1A4175"
           points="575.78,118.02 583.68,116.48 588.05,109.72 591.75,128.42    "
           id="polygon167" /></g></g></g><path
     fill="#009540"
     d="M493.13,67.12l2.16,3.08c-8.8,6.62-18.58,16.81-29.35,30.58c-10.77,13.77-18.99,26.63-24.66,38.59  l-4.56,3.08c-3.78,2.63-6.35,4.58-7.71,5.86c-0.53-1.93-1.7-5.1-3.51-9.49l-1.73-4.01c-2.46-5.75-4.76-10.01-6.88-12.76  c-2.12-2.75-4.49-4.58-7.12-5.49c4.44-4.69,8.51-7.03,12.21-7.03c3.17,0,6.68,4.29,10.54,12.88l1.91,4.32  c6.94-11.71,15.86-23.1,26.75-34.15C472.09,81.52,482.74,73.04,493.13,67.12z"
     id="path169" /><path
     fill="#009540"
     d="M493.13,240.57l2.16,3.08c-8.8,6.62-18.58,16.81-29.35,30.58c-10.77,13.77-18.99,26.63-24.66,38.59  l-4.56,3.08c-3.78,2.63-6.35,4.58-7.71,5.86c-0.53-1.93-1.7-5.1-3.51-9.49l-1.73-4.01c-2.46-5.75-4.76-10.01-6.88-12.76  c-2.12-2.75-4.49-4.58-7.12-5.49c4.44-4.69,8.51-7.03,12.21-7.03c3.17,0,6.68,4.29,10.54,12.88l1.91,4.32  c6.94-11.71,15.86-23.1,26.75-34.15C472.09,254.97,482.74,246.49,493.13,240.57z"
     id="path171" /></svg>